# xmcd
#
# Track frame offsets:
#	150
#	13435
#	33485
#	47853
#	61258
#	76093
#	90243
#	102293
#	115503
#	130038
#	143240
#	161730
#	178053
#	191060
#
# Disc length: 2743
#
# Revision: 2
# Processed by: cddbd v1.5.1PL0 Copyright (c) Steve Scherf et al.
# Submitted via: CDex 1.51
# Normalized: r0:TDELIM( - ),TSWAP
#
DISCID=b50ab50e
DTITLE=Several - That's Bebop
DYEAR=1992
DGENRE=Jazz
TTITLE0=Don Byas - How High The Moon
TTITLE1=Tadd Dameron - Tadd Walk
TTITLE2=Miles Davis - All The Things You Are
TTITLE3=Miles Davis - Crazeology
TTITLE4=Miles Davis - My Old Flame
TTITLE5=Billy Eckstine - Blowin' The Blues Away
TTITLE6=Dizzy Gillespie - Groovin' High
TTITLE7=Dizzy Gillespie - Blue N'Boogie
TTITLE8=Dizzy Gillespie - Salt Peanuts
TTITLE9=Dizzy Gillespie - Benny Goodman
TTITLE10=Dexter Gordon - Undercurrent Blues
TTITLE11=Wardell Gray - Bikini
TTITLE12=Wardell Gray - Dell's Bells
TTITLE13=Tiny Grimes - Red Cross
EXTD=YEAR: 1992
EXTT0=
EXTT1=
EXTT2=
EXTT3=
EXTT4=
EXTT5=
EXTT6=
EXTT7=
EXTT8=
EXTT9=
EXTT10=
EXTT11=
EXTT12=
EXTT13=
PLAYORDER=
